# xmcd
#
# Track frame offsets:
#	150
#	22350
#	54000
#	92137
#	129300
#	163350
#	185025
#	213487
#	242287
#	278550
#
# Disc length: 3967
#
# Revision: 1
# Processed by: cddbd v1.5.1PL0 Copyright (c) Steve Scherf et al.
# Submitted via: FreeRIP 2.50 
# Normalized: r0:TDELIM( - )
#
DISCID=890f7d0a
DTITLE=Various Artist - Live at the W.C. Handy Awards vol. 1
DYEAR=2003
DGENRE=Blues
TTITLE0=Bluesifying - Joe Louis Walker
TTITLE1=Cherry Red Wine - Luther Allison with the Memphis Horns
TTITLE2=Low Down Dog - Rod Piazza and the Mighty Flyers
TTITLE3=Walking the Dog - Rufus Thomas with Bonnie Raitt
TTITLE4=Bad Love - Deborah Coleman and Bernard Allison
TTITLE5=Michigan Water - Paul Rishell and Annie Raines
TTITLE6=Just Won't Burn - Susan Tedeschi
TTITLE7=Senor Blues - Taj Mahal and the Phantom Blues Band
TTITLE8=Hoochie Man - Bobby Rush
TTITLE9=Three Time Loser - Bonnie Raitt
EXTD=
EXTT0=
EXTT1=
EXTT2=
EXTT3=
EXTT4=
EXTT5=
EXTT6=
EXTT7=
EXTT8=
EXTT9=
PLAYORDER=
